<svg width="53" height="53" viewBox="0 0 53 53" fill="none" xmlns="http://www.w3.org/2000/svg">
<circle cx="26.5" cy="26.5" r="26.5" fill="#F82034" fill-opacity="0.1"/>
<path d="M26.5 14C24.7767 14.002 23.1245 14.6874 21.906 15.906C20.6874 17.1245 20.002 18.7767 20 20.5C20 20.931 20.1712 21.3443 20.476 21.649C20.7807 21.9538 21.194 22.125 21.625 22.125C22.056 22.125 22.4693 21.9538 22.774 21.649C23.0788 21.3443 23.25 20.931 23.25 20.5C23.25 19.638 23.5924 18.8114 24.2019 18.2019C24.8114 17.5924 25.638 17.25 26.5 17.25C27.362 17.25 28.1886 17.5924 28.7981 18.2019C29.4076 18.8114 29.75 19.638 29.75 20.5C29.75 21.9092 28.9216 22.7741 27.5601 24.0309C26.3 25.1908 24.875 26.5049 24.875 28.625C24.875 29.056 25.0462 29.4693 25.351 29.774C25.6557 30.0788 26.069 30.25 26.5 30.25C26.931 30.25 27.3443 30.0788 27.649 29.774C27.9538 29.4693 28.125 29.056 28.125 28.625C28.125 27.9632 28.7471 27.3555 29.7627 26.4192C31.1274 25.1592 33 23.4342 33 20.5C32.998 18.7767 32.3126 17.1245 31.094 15.906C29.8755 14.6874 28.2233 14.002 26.5 14Z" fill="#F82034"/>
<path d="M26.5 33.5C25.8572 33.5 25.2289 33.6906 24.6944 34.0477C24.1599 34.4048 23.7434 34.9124 23.4974 35.5063C23.2514 36.1001 23.187 36.7536 23.3124 37.384C23.4379 38.0145 23.7474 38.5936 24.2019 39.0481C24.6564 39.5026 25.2355 39.8122 25.866 39.9376C26.4964 40.063 27.1499 39.9986 27.7437 39.7526C28.3376 39.5066 28.8452 39.0901 29.2023 38.5556C29.5594 38.0211 29.75 37.3928 29.75 36.75C29.7491 35.8883 29.4065 35.0622 28.7972 34.4528C28.1878 33.8435 27.3617 33.5009 26.5 33.5Z" fill="#F82034"/>
</svg>
