<svg width="53" height="53" viewBox="0 0 53 53" fill="none" xmlns="http://www.w3.org/2000/svg">
<circle cx="26.5" cy="26.5" r="26.5" fill="#F82034" fill-opacity="0.1"/>
<path d="M26.9997 8C35.172 8 41.8213 14.612 41.8213 22.7401V39.6501C41.8213 41.9875 39.9112 43.8891 37.5637 43.8891H31.7288C31.2588 45.1221 30.0638 46 28.6679 46H25.3316C23.5262 46 22.0574 44.5312 22.0574 42.7258C22.0574 40.9204 23.5261 39.4508 25.3316 39.4508H28.6678C30.0637 39.4508 31.2588 40.3295 31.7287 41.5625H37.5637C38.6284 41.5625 39.4947 40.7048 39.4947 39.6501V38.2659C38.6678 38.5901 38.3836 38.5171 34.8354 38.5171C34.1926 38.5171 33.6722 37.996 33.6722 37.3539V26.8418C33.6722 26.1989 34.1926 25.6785 34.8354 25.6785C38.3782 25.6785 38.6662 25.6049 39.4947 25.9298V22.7401C39.4947 15.8954 33.8893 10.3265 26.9997 10.3265C20.11 10.3265 14.5046 15.8954 14.5046 22.7401V25.9305C15.332 25.6045 15.6244 25.6785 19.1647 25.6785C19.8068 25.6785 20.3279 26.1988 20.3279 26.8417V37.3537C20.3279 37.9959 19.8067 38.517 19.1647 38.517H15.8385C13.8206 38.517 12.1788 36.8752 12.1788 34.8573C12.1788 34.5522 12.1781 31.2204 12.1781 22.74C12.1782 14.612 18.8274 8 26.9997 8Z" fill="#F82034"/>
<path d="M28.5835 40.0333H24.7837C23.4122 40.0333 22.3003 41.1452 22.3003 42.5167C22.3003 43.8882 23.4122 45.0001 24.7837 45.0001H28.5835C29.955 45.0001 31.0669 43.8882 31.0669 42.5167C31.0669 41.1452 29.955 40.0333 28.5835 40.0333Z" fill="white" stroke="#F82034" stroke-width="2"/>
</svg>
