<svg width="53" height="53" viewBox="0 0 53 53" fill="none" xmlns="http://www.w3.org/2000/svg">
<circle cx="26.5" cy="26.5" r="26.5" fill="#F82034" fill-opacity="0.1"/>
<path d="M35.5375 10.5168H18.6812C17.606 10.5185 16.5752 10.9464 15.8149 11.7067C15.0545 12.467 14.6267 13.4978 14.625 14.5731V22.9981H19.6125C19.6179 22.0152 20.011 21.0741 20.7062 20.3794C21.4081 19.6744 22.3607 19.2765 23.3555 19.2729C24.3502 19.2694 25.3057 19.6606 26.0125 20.3606L29.7563 24.0856C29.7625 24.0918 29.7625 24.0918 29.7625 24.0981C29.9536 24.2896 30.1233 24.5013 30.2688 24.7293C30.3373 24.8363 30.3999 24.9468 30.4563 25.0606L30.4606 25.07C30.4033 24.9528 30.3393 24.8391 30.2688 24.7293C30.3421 24.8456 30.4091 24.9658 30.4694 25.0893C30.5044 25.1518 30.5319 25.2218 30.56 25.2887C30.6112 25.4038 30.6558 25.5217 30.6938 25.6418C30.6584 25.5275 30.6167 25.4153 30.5688 25.3056C30.5825 25.3387 30.6012 25.3681 30.6137 25.4044C30.645 25.4856 30.67 25.5606 30.695 25.6418C30.8082 25.9996 30.8651 26.3728 30.8638 26.7481C30.8641 27.1146 30.8094 27.4791 30.7013 27.8293C30.6711 27.9469 30.6314 28.0619 30.5825 28.1731C30.5368 28.2864 30.4846 28.397 30.4262 28.5044C30.3698 28.612 30.3072 28.7164 30.2388 28.8169C30.1017 29.027 29.9424 29.2219 29.7638 29.3981L26.0262 33.1544C25.6777 33.5058 25.2629 33.7844 24.8059 33.9743C24.3488 34.1643 23.8587 34.2616 23.3638 34.2606C22.3733 34.2623 21.4226 33.8712 20.72 33.1731C20.0154 32.4707 19.6178 31.5179 19.6138 30.5231V30.4981H14.6263V38.9169C14.6263 39.9932 15.0534 41.0256 15.8139 41.7873C16.5744 42.5489 17.6061 42.9777 18.6825 42.9794H35.5387C36.6151 42.9777 37.6468 42.5489 38.4073 41.7873C39.1678 41.0256 39.595 39.9932 39.595 38.9169V14.5731C39.5933 13.4976 39.1653 12.4666 38.4047 11.7063C37.6441 10.9459 36.613 10.5182 35.5375 10.5168Z" fill="#F82034"/>
<path d="M14.6251 28.0006H17.1251H24.1045L22.792 29.3244L22.4839 29.6369C22.4626 29.6581 22.4476 29.6831 22.4282 29.7056C22.3927 29.7443 22.3595 29.785 22.3289 29.8275C22.3132 29.8513 22.3026 29.8775 22.2882 29.9019C22.2602 29.9481 22.2351 29.9962 22.2132 30.0456C22.2057 30.0638 22.2026 30.0825 22.1957 30.1013C22.1736 30.1596 22.156 30.2196 22.1432 30.2806C22.1432 30.2875 22.1432 30.2944 22.1432 30.3013C22.1302 30.3681 22.1224 30.4358 22.1201 30.5038H22.1245C22.1219 30.6708 22.1531 30.8367 22.2162 30.9915C22.2792 31.1462 22.3728 31.2866 22.4914 31.4044C22.6071 31.52 22.7445 31.6117 22.8957 31.6741C23.047 31.7365 23.209 31.7685 23.3726 31.7681C23.5374 31.7685 23.7006 31.7361 23.8527 31.6728C24.0049 31.6095 24.143 31.5166 24.2589 31.3994L28.0007 27.6369C28.0107 27.6275 28.017 27.6156 28.0264 27.6056C28.0722 27.5571 28.1141 27.5048 28.1514 27.4494C28.167 27.4256 28.1776 27.4 28.1914 27.3756C28.2196 27.3303 28.2446 27.2831 28.2664 27.2344C28.2795 27.2031 28.2864 27.1719 28.297 27.1369C28.3131 27.0925 28.3267 27.0472 28.3376 27.0013C28.3476 26.9426 28.3534 26.8833 28.3551 26.8238C28.3551 26.8006 28.362 26.7788 28.362 26.7556V26.7519C28.3619 26.6696 28.3535 26.5875 28.337 26.5069C28.3213 26.4299 28.2982 26.3545 28.2682 26.2819V26.2738C28.2376 26.2017 28.2004 26.1326 28.157 26.0675L28.1526 26.0588C28.1068 25.9915 28.0547 25.9287 27.997 25.8713L24.2514 22.1469C24.0163 21.9132 23.6981 21.7825 23.3666 21.7835C23.0351 21.7844 22.7176 21.9169 22.4839 22.1519C22.2572 22.3801 22.1277 22.6872 22.1226 23.0088H22.1176V23.0338C22.1205 23.0941 22.1271 23.1543 22.1376 23.2138C22.1376 23.2356 22.1376 23.2575 22.1451 23.2794C22.1526 23.3013 22.1539 23.3069 22.1576 23.3206C22.1732 23.387 22.1941 23.452 22.2201 23.515C22.2239 23.5244 22.2301 23.5325 22.2345 23.5419C22.2619 23.6055 22.2945 23.6668 22.332 23.725C22.3777 23.7955 22.4302 23.8612 22.4889 23.9213L24.087 25.5075H12.1314C11.7998 25.5075 11.4819 25.6392 11.2475 25.8736C11.0131 26.1081 10.8813 26.426 10.8813 26.7575C10.8813 27.089 11.0131 27.407 11.2475 27.6414C11.4819 27.8758 11.7998 28.0075 12.1314 28.0075H14.6264L14.6251 28.0006Z" fill="#F82034"/>
</svg>
