<svg width="17" height="16" viewBox="0 0 17 16" fill="none" xmlns="http://www.w3.org/2000/svg">
<path d="M8.5 9.75044L5.16667 9.75M16 8V7.3C16 6.31991 16 5.82986 15.8183 5.45552C15.6586 5.12623 15.4036 4.85851 15.09 4.69074C14.7335 4.5 14.2667 4.5 13.3333 4.5H1M16 8V11.5M16 8H14.3333C13.4128 8 12.6667 8.78348 12.6667 9.75C12.6667 10.7165 13.4128 11.5 14.3333 11.5H16M1 4.5V12.2C1 13.1801 1 13.6702 1.18166 14.0445C1.34144 14.3738 1.59641 14.6415 1.91002 14.8092C2.26653 15 2.73325 15 3.66667 15H13.3333C14.2667 15 14.7335 15 15.09 14.8092C15.4036 14.6415 15.6586 14.3738 15.8183 14.0445C16 13.6702 16 13.1801 16 12.2V11.5M1 4.5V3.8C1 2.81991 1 2.32986 1.18166 1.95552C1.34144 1.62623 1.59641 1.35851 1.91002 1.19074C2.26653 1 2.73324 1 3.66667 1H10.8333C11.7667 1 12.2335 1 12.59 1.19074C12.9036 1.35851 13.1586 1.62623 13.3183 1.95552C13.5 2.32986 13.5 2.81991 13.5 3.8V4.5" stroke="#F82034" stroke-width="2" stroke-linecap="round" stroke-linejoin="round"/>
</svg>
