<svg width="53" height="53" viewBox="0 0 53 53" fill="none" xmlns="http://www.w3.org/2000/svg">
<circle cx="26.5" cy="26.5" r="26.5" fill="#F82034" fill-opacity="0.1"/>
<g clip-path="url(#clip0_366_1080)">
<path d="M40.4585 19.9167H39.0418V15.6667C39.0418 15.2909 38.8926 14.9306 38.6269 14.6649C38.3612 14.3993 38.0009 14.25 37.6252 14.25H17.0835C15.9563 14.25 14.8753 14.6978 14.0783 15.4948C13.2813 16.2918 12.8335 17.3728 12.8335 18.5V35.5C12.8335 36.6272 13.2813 37.7082 14.0783 38.5052C14.8753 39.3022 15.9563 39.75 17.0835 39.75H40.4585C40.8342 39.75 41.1946 39.6007 41.4602 39.3351C41.7259 39.0694 41.8752 38.7091 41.8752 38.3333V21.3333C41.8752 20.9576 41.7259 20.5973 41.4602 20.3316C41.1946 20.0659 40.8342 19.9167 40.4585 19.9167ZM15.6668 18.7125C15.636 18.5095 15.6497 18.3021 15.707 18.1049C15.7642 17.9077 15.8637 17.7253 15.9984 17.5703C16.1332 17.4154 16.3 17.2915 16.4874 17.2074C16.6747 17.1234 16.8781 17.081 17.0835 17.0833H36.2085V19.9167H17.1543C16.8043 19.9231 16.4633 19.8058 16.1912 19.5856C15.9191 19.3653 15.7334 19.0562 15.6668 18.7125ZM39.0418 34.0833H30.5418C30.1661 34.0833 29.8058 33.9341 29.5401 33.6684C29.2744 33.4027 29.1252 33.0424 29.1252 32.6667V27C29.1252 26.6243 29.2744 26.2639 29.5401 25.9983C29.8058 25.7326 30.1661 25.5833 30.5418 25.5833H39.0418V34.0833Z" fill="#F82034"/>
<path d="M33.3752 31.25C34.1576 31.25 34.7918 30.6157 34.7918 29.8333C34.7918 29.0509 34.1576 28.4167 33.3752 28.4167C32.5928 28.4167 31.9585 29.0509 31.9585 29.8333C31.9585 30.6157 32.5928 31.25 33.3752 31.25Z" fill="#F82034"/>
</g>
<defs>
<clipPath id="clip0_366_1080">
<rect width="34" height="34" fill="white" transform="translate(10 10)"/>
</clipPath>
</defs>
</svg>
