<svg width="18" height="18" viewBox="0 0 18 18" fill="none" xmlns="http://www.w3.org/2000/svg">
<path fill-rule="evenodd" clip-rule="evenodd" d="M15 2.25C15.7908 2.25 16.4386 2.86191 16.4959 3.63805L16.5 3.75V14.25C16.5 15.0408 15.8881 15.6886 15.1119 15.7459L15 15.75H3C2.20923 15.75 1.56138 15.1381 1.50411 14.3619L1.5 14.25V3.75C1.5 2.95923 2.11191 2.31138 2.88805 2.25411L3 2.25H15ZM15 3.75H3V14.25H15V3.75ZM7.75508 5.72854L8.14316 5.90167L8.39705 6.02117L8.68691 6.16296L9.0098 6.3273L9.36276 6.51443L9.74285 6.72461C9.8083 6.76157 9.87475 6.79951 9.94215 6.83842L10.3307 7.0676L10.6863 7.28614L11.0078 7.49135L11.2938 7.68055L11.6536 7.92847L11.9265 8.12526C11.9518 8.14394 11.9755 8.16152 11.9974 8.17793C12.4934 8.5488 12.4956 9.29033 11.9975 9.6627L11.7558 9.83933L11.426 10.0699L11.1587 10.2494L10.8548 10.4467L10.5153 10.6591L10.1411 10.8843L9.74057 11.1155L9.35862 11.3269L9.00498 11.5147L8.68232 11.6792L8.3933 11.8208L7.9269 12.037L7.75485 12.1123C7.1827 12.3577 6.54132 11.9842 6.46878 11.3687L6.42493 10.9454L6.40158 10.6653L6.36952 10.167L6.3526 9.78637L6.34121 9.36993C6.33986 9.29769 6.33882 9.22406 6.33811 9.1491L6.33704 8.92027C6.33704 8.76518 6.33852 8.6152 6.34121 8.47075L6.35259 8.05443L6.36951 7.67386L6.39026 7.33159L6.41317 7.03018L6.46874 6.47216C6.54141 5.85554 7.18398 5.48353 7.75508 5.72854ZM8.21343 7.6043L7.88632 7.44048L7.86468 7.80635L7.8479 8.21961L7.83835 8.67656C7.8375 8.75616 7.83705 8.83742 7.83705 8.92027L7.83835 9.16389L7.84787 9.62067C7.85012 9.69326 7.85268 9.76404 7.85549 9.83291L7.87498 10.2228C7.8786 10.2838 7.88237 10.3428 7.88625 10.3996L8.21192 10.2361L8.57724 10.0441L8.97844 9.82328C9.04809 9.78403 9.11908 9.74356 9.19133 9.70185L9.60449 9.45762L9.97528 9.22832L10.3022 9.01742C10.353 8.984 10.4019 8.9515 10.4488 8.91998L10.1434 8.71859L9.79415 8.49754C9.60887 8.38273 9.40786 8.26198 9.19215 8.13743L8.98011 8.01651L8.57942 7.7962L8.21343 7.6043Z" fill="#F82034"/>
</svg>
